<svg xmlns="http://www.w3.org/2000/svg" xmlns:xlink="http://www.w3.org/1999/xlink" version="1.1" id="Layer_1" x="0px" y="0px" viewBox="0 0 512 512" style="enable-background:new 0 0 512 512;" xml:space="preserve"><g><path d="M452.5,0.1c-4,0-32.1,5.6-262.9,48.8c-1.8,0-10.4,2.3-15.2,6.2c-4.7,3.7-7.1,8.7-8,14.6c-3.8,15.4,8.4,292.7-3,305.7   c-5,5.5-13.8,7.1-20.6,8.4c-40.6,7.1-67.6,10.8-86.9,29.2c-33.1,32.3-16,88.8,32.9,98c18.3,3.4,52.7-1.2,71.7-11.7   c16.7-8.6,29.4-24.1,34.2-44.7c4.1-17.7,2.8-5.4,2.8-271c0-13,3.6-16.4,15.2-18.9c0,0,200.8-37.6,210.1-39.1   c13-2.3,19.2,1.3,19.2,13.9c0,180,2.3,176.5-5,184.7c-5,5.5-10.9,7.1-17.7,8.3c-40.6,7.1-65.2,8.4-84.4,26.7   c-24.3,23.8-24,61.4,3,84.2c20.1,15.4,42.8,19.1,70.5,14c31.6-5.9,55.1-23.3,62.3-54.3c3.3-14.1,2.2,6.8,2.1-382.9   C472.9,6.9,465.5-0.8,452.5,0.1z"/></g></svg>