<svg xmlns="http://www.w3.org/2000/svg" xmlns:xlink="http://www.w3.org/1999/xlink" version="1.1" id="Layer_1" x="0px" y="0px" viewBox="0 0 512 512" style="enable-background:new 0 0 512 512;" xml:space="preserve"><g><path d="M256,0C114.6,0,0,114.6,0,256s114.6,256,256,256s256-114.6,256-256S397.4,0,256,0z M256,42.7   c118.5,0,213.3,94.8,213.3,213.3S374.5,469.3,256,469.3S42.7,374.5,42.7,256S137.5,42.7,256,42.7z M222,144   c-41.5,0-77.7,3.8-112,14.7c-9.1,1.8-16.7,8.7-16.7,21.3s9.3,23.8,22,22c5.4,0,9.1-2,12.7-2c28.9-7.3,61.5-10.7,94-10.7   c63.2,0,128,14.1,171.3,39.3c5.4,1.8,7.3,4,12.7,4c12.7,0,21.5-9.3,23.3-22c0-10.8-5.4-17.8-12.7-21.3   C362.5,158.7,290.6,144,222,144z M216,223.3c-37.9,0-64.9,5.4-92,12.7c-9,3.6-14,9.2-14,20c0,9,7.2,18,18,18c3.7,0,5.3-0.2,10.7-2   c19.8-5.4,47.1-8.7,76-8.7c59.6,0,111.4,14.5,149.3,38c3.6,1.8,7.3,3.3,12.7,3.3c10.8,0,18-9.2,18-20c0-7.3-3.4-14.4-10.7-18   C337.1,237.8,277.4,223.3,216,223.3z M222,301.3c-30.7,0-59.8,3.4-88.7,10.7c-7.2,1.8-12.7,7-12.7,16c0,7.3,5.7,14.7,14.7,14.7   c1.8,0,7.1-2,10.7-2c23.5-5.4,48.8-8.7,74-8.7c45.1,0,86.3,10.8,120.7,30.7c3.7,1.8,7.8,3.3,11.3,3.3c7.3,0,14.2-5.4,16-12.7   c0-9.1-3.9-12.4-9.3-16C318.9,313.8,272.5,301.3,222,301.3z"/></g></svg>